<?xml version="1.0" encoding="UTF-8" standalone="no"?>
<!DOCTYPE svg PUBLIC "-//W3C//DTD SVG 1.1//EN"
 "http://www.w3.org/Graphics/SVG/1.1/DTD/svg11.dtd">
<!-- Generated by graphviz version 2.43.0 (0)
 -->
<!-- Title: DiagramaClasses Pages: 1 -->
<svg width="1846pt" height="1037pt"
 viewBox="0.00 0.00 1846.00 1037.00" xmlns="http://www.w3.org/2000/svg" xmlns:xlink="http://www.w3.org/1999/xlink">
<g id="graph0" class="graph" transform="scale(1 1) rotate(0) translate(4 1033)">
<title>DiagramaClasses</title>
<polygon fill="white" stroke="transparent" points="-4,4 -4,-1033 1842,-1033 1842,4 -4,4"/>
<!-- Nucleo -->
<g id="node1" class="node">
<title>Nucleo</title>
<polygon fill="#1f3b57" stroke="#4a6178" points="365,-611.5 365,-685.5 733,-685.5 733,-611.5 365,-611.5"/>
<text text-anchor="middle" x="415.5" y="-646" font-family="Helvetica,sans-Serif" font-size="10.00" fill="white">NucleoSimulacao</text>
<polyline fill="none" stroke="#4a6178" points="466,-611.5 466,-685.5 "/>
<text text-anchor="start" x="474" y="-646" font-family="Helvetica,sans-Serif" font-size="10.00" fill="white">+ Clock : long</text>
<polyline fill="none" stroke="#4a6178" points="551,-611.5 551,-685.5 "/>
<text text-anchor="start" x="559" y="-673.5" font-family="Helvetica,sans-Serif" font-size="10.00" fill="white">+ Executar() : ColetorMetricas</text>
<text text-anchor="start" x="559" y="-662.5" font-family="Helvetica,sans-Serif" font-size="10.00" fill="white">&#45; TentarDespachar()</text>
<text text-anchor="start" x="559" y="-651.5" font-family="Helvetica,sans-Serif" font-size="10.00" fill="white">&#45; ProcessarExecucaoCpu()</text>
<text text-anchor="start" x="559" y="-640.5" font-family="Helvetica,sans-Serif" font-size="10.00" fill="white">&#45; ProcessarOperacaoES()</text>
<text text-anchor="start" x="559" y="-629.5" font-family="Helvetica,sans-Serif" font-size="10.00" fill="white">&#45; ProcessarFimAtendimentoFalta()</text>
<text text-anchor="start" x="559" y="-618.5" font-family="Helvetica,sans-Serif" font-size="10.00" fill="white">&#45; ExecutarOperacaoArquivo()</text>
</g>
<!-- Registrador -->
<g id="node4" class="node">
<title>Registrador</title>
<polygon fill="#f4f7fa" stroke="#4a6178" points="838.5,-0.5 838.5,-36.5 1129.5,-36.5 1129.5,-0.5 838.5,-0.5"/>
<text text-anchor="middle" x="894.5" y="-16" font-family="Helvetica,sans-Serif" font-size="10.00">RegistradorEventos</text>
<polyline fill="none" stroke="#4a6178" points="950.5,-0.5 950.5,-36.5 "/>
<text text-anchor="start" x="958.5" y="-21.5" font-family="Helvetica,sans-Serif" font-size="10.00">+ Registrar(clock, tipo, obj, desc)</text>
<text text-anchor="start" x="958.5" y="-10.5" font-family="Helvetica,sans-Serif" font-size="10.00">+ TotalLinhas : int</text>
</g>
<!-- Nucleo&#45;&gt;Registrador -->
<g id="edge23" class="edge">
<title>Nucleo&#45;&gt;Registrador</title>
<path fill="none" stroke="#4a6178" d="M725.42,-603.32C728.07,-600.85 730.6,-598.24 733,-595.5 813.44,-503.48 729.54,-139.85 814,-51.5 821.13,-44.04 829.4,-38 838.39,-33.12"/>
<polygon fill="none" stroke="#4a6178" points="725.19,-603.52 723.17,-610.44 716,-611.24 718.02,-604.32 725.19,-603.52"/>
</g>
<!-- Coletor -->
<g id="node5" class="node">
<title>Coletor</title>
<polygon fill="#f4f7fa" stroke="#4a6178" points="851,-771 851,-812 1117,-812 1117,-771 851,-771"/>
<text text-anchor="middle" x="898" y="-789" font-family="Helvetica,sans-Serif" font-size="10.00">ColetorMetricas</text>
<polyline fill="none" stroke="#4a6178" points="945,-771 945,-812 "/>
<text text-anchor="start" x="953" y="-800" font-family="Helvetica,sans-Serif" font-size="10.00">+ UtilizacaoCpu, Throughput</text>
<text text-anchor="start" x="953" y="-789" font-family="Helvetica,sans-Serif" font-size="10.00">+ TaxaFaltas ...</text>
<text text-anchor="start" x="953" y="-778" font-family="Helvetica,sans-Serif" font-size="10.00">+ Finalizar(), RegistrarUsoCpu()</text>
</g>
<!-- Nucleo&#45;&gt;Coletor -->
<g id="edge22" class="edge">
<title>Nucleo&#45;&gt;Coletor</title>
<path fill="none" stroke="#4a6178" d="M641.85,-690.35C691.96,-712.01 755.54,-737.58 814,-755.5 832.79,-761.26 853.02,-766.43 872.74,-770.93"/>
<polygon fill="none" stroke="#4a6178" points="641.72,-690.3 634.63,-691.58 630.72,-685.52 637.82,-684.24 641.72,-690.3"/>
</g>
<!-- Fila -->
<g id="node6" class="node">
<title>Fila</title>
<polygon fill="#f4f7fa" stroke="#4a6178" points="869.5,-704.5 869.5,-740.5 1098.5,-740.5 1098.5,-704.5 869.5,-704.5"/>
<text text-anchor="middle" x="912.5" y="-720" font-family="Helvetica,sans-Serif" font-size="10.00">FilaDeEventos</text>
<polyline fill="none" stroke="#4a6178" points="955.5,-704.5 955.5,-740.5 "/>
<text text-anchor="start" x="963.5" y="-725.5" font-family="Helvetica,sans-Serif" font-size="10.00">+ Enfileirar(IEvento)</text>
<text text-anchor="start" x="963.5" y="-714.5" font-family="Helvetica,sans-Serif" font-size="10.00">+ Desenfileirar() : IEvento</text>
</g>
<!-- Nucleo&#45;&gt;Fila -->
<g id="edge12" class="edge">
<title>Nucleo&#45;&gt;Fila</title>
<path fill="none" stroke="#4a6178" d="M744.88,-681.81C790.5,-689.6 837.41,-697.62 877.41,-704.45"/>
<polygon fill="#4a6178" stroke="#4a6178" points="744.83,-681.8 738.24,-684.73 733,-679.78 739.59,-676.84 744.83,-681.8"/>
</g>
<!-- IEsc -->
<g id="node8" class="node">
<title>IEsc</title>
<polygon fill="#e6edf3" stroke="#4a6178" points="857,-842 857,-883 1111,-883 1111,-842 857,-842"/>
<text text-anchor="start" x="865" y="-865.5" font-family="Helvetica,sans-Serif" font-size="10.00">«interface»</text>
<text text-anchor="middle" x="896.5" y="-854.5" font-family="Helvetica,sans-Serif" font-size="10.00">IEscalonador</text>
<polyline fill="none" stroke="#4a6178" points="936,-842 936,-883 "/>
<text text-anchor="start" x="944" y="-871" font-family="Helvetica,sans-Serif" font-size="10.00">+ Admitir(ThreadSimulada)</text>
<text text-anchor="start" x="944" y="-860" font-family="Helvetica,sans-Serif" font-size="10.00">+ Selecionar() : ThreadSimulada</text>
<text text-anchor="start" x="944" y="-849" font-family="Helvetica,sans-Serif" font-size="10.00">+ DevePreemptar(t) : bool</text>
</g>
<!-- Nucleo&#45;&gt;IEsc -->
<g id="edge18" class="edge">
<title>Nucleo&#45;&gt;IEsc</title>
<path fill="none" stroke="#4a6178" d="M623.23,-692.02C657.18,-712.83 697.72,-738.59 733,-763.5 770.48,-789.97 772.42,-808.1 814,-827.5 827.44,-833.77 842,-838.92 856.75,-843.16"/>
<polygon fill="none" stroke="#4a6178" points="623.16,-691.98 615.96,-692.27 612.92,-685.73 620.12,-685.44 623.16,-691.98"/>
</g>
<!-- GerMem -->
<g id="node12" class="node">
<title>GerMem</title>
<polygon fill="#f4f7fa" stroke="#4a6178" points="814,-347 814,-388 1154,-388 1154,-347 814,-347"/>
<text text-anchor="middle" x="873.5" y="-365" font-family="Helvetica,sans-Serif" font-size="10.00">GerenciadorMemoria</text>
<polyline fill="none" stroke="#4a6178" points="933,-347 933,-388 "/>
<text text-anchor="start" x="941" y="-376" font-family="Helvetica,sans-Serif" font-size="10.00">+ Acessar(tabela, end) : ResultadoAcesso</text>
<text text-anchor="start" x="941" y="-365" font-family="Helvetica,sans-Serif" font-size="10.00">+ TratarFalta(pid, tabela, end)</text>
<text text-anchor="start" x="941" y="-354" font-family="Helvetica,sans-Serif" font-size="10.00">+ LiberarProcesso(pid)</text>
</g>
<!-- Nucleo&#45;&gt;GerMem -->
<g id="edge19" class="edge">
<title>Nucleo&#45;&gt;GerMem</title>
<path fill="none" stroke="#4a6178" d="M721.52,-604.65C725.51,-601.79 729.35,-598.75 733,-595.5 802.22,-533.96 742.61,-462.51 814,-403.5 821.28,-397.48 829.33,-392.4 837.85,-388.11"/>
<polygon fill="none" stroke="#4a6178" points="721.32,-604.79 718.51,-611.43 711.3,-611.39 714.11,-604.75 721.32,-604.79"/>
</g>
<!-- Disp -->
<g id="node17" class="node">
<title>Disp</title>
<polygon fill="#f4f7fa" stroke="#4a6178" points="858.5,-264.5 858.5,-316.5 1109.5,-316.5 1109.5,-264.5 858.5,-264.5"/>
<text text-anchor="middle" x="894" y="-288" font-family="Helvetica,sans-Serif" font-size="10.00">Dispositivo</text>
<polyline fill="none" stroke="#4a6178" points="929.5,-264.5 929.5,-316.5 "/>
<text text-anchor="start" x="937.5" y="-304.5" font-family="Helvetica,sans-Serif" font-size="10.00">+ Enfileirar(RequisicaoES)</text>
<text text-anchor="start" x="937.5" y="-293.5" font-family="Helvetica,sans-Serif" font-size="10.00">+ IniciarProxima() : RequisicaoES</text>
<text text-anchor="start" x="937.5" y="-282.5" font-family="Helvetica,sans-Serif" font-size="10.00">+ Concluir()</text>
<text text-anchor="start" x="937.5" y="-271.5" font-family="Helvetica,sans-Serif" font-size="10.00">+ TempoOcupado, Deslocamento</text>
</g>
<!-- Nucleo&#45;&gt;Disp -->
<g id="edge21" class="edge">
<title>Nucleo&#45;&gt;Disp</title>
<path fill="none" stroke="#4a6178" d="M723.23,-604.14C726.64,-601.43 729.9,-598.55 733,-595.5 776.73,-552.45 769.33,-373.58 814,-331.5 826.53,-319.7 841.85,-311.12 858.11,-304.92"/>
<polygon fill="none" stroke="#4a6178" points="723,-604.31 720.5,-611.07 713.3,-611.36 715.8,-604.6 723,-604.31"/>
</g>
<!-- SisArq -->
<g id="node22" class="node">
<title>SisArq</title>
<polygon fill="#f4f7fa" stroke="#4a6178" points="838,-622.5 838,-674.5 1130,-674.5 1130,-622.5 838,-622.5"/>
<text text-anchor="middle" x="894.5" y="-646" font-family="Helvetica,sans-Serif" font-size="10.00">SistemaDeArquivos</text>
<polyline fill="none" stroke="#4a6178" points="951,-622.5 951,-674.5 "/>
<text text-anchor="start" x="959" y="-662.5" font-family="Helvetica,sans-Serif" font-size="10.00">+ CriarArquivo() / CriarDiretorio()</text>
<text text-anchor="start" x="959" y="-651.5" font-family="Helvetica,sans-Serif" font-size="10.00">+ Abrir() / Fechar()</text>
<text text-anchor="start" x="959" y="-640.5" font-family="Helvetica,sans-Serif" font-size="10.00">+ Ler() / Escrever()</text>
<text text-anchor="start" x="959" y="-629.5" font-family="Helvetica,sans-Serif" font-size="10.00">+ Remover() / Listar()</text>
</g>
<!-- Nucleo&#45;&gt;SisArq -->
<g id="edge20" class="edge">
<title>Nucleo&#45;&gt;SisArq</title>
<path fill="none" stroke="#4a6178" d="M745.34,-648.5C776.41,-648.5 808.07,-648.5 837.72,-648.5"/>
<polygon fill="none" stroke="#4a6178" points="745,-648.5 739,-652.5 733,-648.5 739,-644.5 745,-648.5"/>
</g>
<!-- Processo -->
<g id="node25" class="node">
<title>Processo</title>
<polygon fill="#f4f7fa" stroke="#4a6178" points="860.5,-551 860.5,-592 1107.5,-592 1107.5,-551 860.5,-551"/>
<text text-anchor="middle" x="890.5" y="-569" font-family="Helvetica,sans-Serif" font-size="10.00">Processo</text>
<polyline fill="none" stroke="#4a6178" points="920.5,-551 920.5,-592 "/>
<text text-anchor="start" x="928.5" y="-580" font-family="Helvetica,sans-Serif" font-size="10.00">+ Id : int</text>
<text text-anchor="start" x="928.5" y="-569" font-family="Helvetica,sans-Serif" font-size="10.00">+ Chegada : long</text>
<text text-anchor="start" x="928.5" y="-558" font-family="Helvetica,sans-Serif" font-size="10.00">+ TodasThreadsFinalizadas() : bool</text>
</g>
<!-- Nucleo&#45;&gt;Processo -->
<g id="edge24" class="edge">
<title>Nucleo&#45;&gt;Processo</title>
<path fill="none" stroke="#4a6178" d="M745.06,-613.81C786.91,-606.37 829.83,-598.74 867.5,-592.04"/>
<polygon fill="none" stroke="#4a6178" points="744.82,-613.86 739.61,-618.84 733,-615.96 738.21,-610.97 744.82,-613.86"/>
</g>
<!-- Fabrica -->
<g id="node2" class="node">
<title>Fabrica</title>
<polygon fill="#f4f7fa" stroke="#4a6178" points="1.5,-630.5 1.5,-666.5 251.5,-666.5 251.5,-630.5 1.5,-630.5"/>
<text text-anchor="middle" x="52" y="-646" font-family="Helvetica,sans-Serif" font-size="10.00">FabricaSimulador</text>
<polyline fill="none" stroke="#4a6178" points="102.5,-630.5 102.5,-666.5 "/>
<text text-anchor="start" x="110.5" y="-651.5" font-family="Helvetica,sans-Serif" font-size="10.00">+ Construir(cfg, carga, log)</text>
<text text-anchor="start" x="110.5" y="-640.5" font-family="Helvetica,sans-Serif" font-size="10.00"> : NucleoSimulacao</text>
</g>
<!-- Fabrica&#45;&gt;Nucleo -->
<g id="edge30" class="edge">
<title>Fabrica&#45;&gt;Nucleo</title>
<path fill="none" stroke="#4a6178" stroke-dasharray="5,2" d="M251.67,-648.5C283.97,-648.5 319.54,-648.5 354.49,-648.5"/>
<polygon fill="#4a6178" stroke="#4a6178" points="364.82,-648.5 354.82,-653 359.82,-648.5 354.82,-648.5 354.82,-648.5 354.82,-648.5 359.82,-648.5 354.82,-644 364.82,-648.5 364.82,-648.5"/>
<text text-anchor="middle" x="309" y="-651.3" font-family="Helvetica,sans-Serif" font-size="9.00">cria</text>
</g>
<!-- Config -->
<g id="node3" class="node">
<title>Config</title>
<polygon fill="#f4f7fa" stroke="#4a6178" points="412,-976.5 412,-1028.5 686,-1028.5 686,-976.5 412,-976.5"/>
<text text-anchor="middle" x="452" y="-1000" font-family="Helvetica,sans-Serif" font-size="10.00">Configuracao</text>
<polyline fill="none" stroke="#4a6178" points="492,-976.5 492,-1028.5 "/>
<text text-anchor="start" x="500" y="-1016.5" font-family="Helvetica,sans-Serif" font-size="10.00">+ Escalonamento</text>
<text text-anchor="start" x="500" y="-1005.5" font-family="Helvetica,sans-Serif" font-size="10.00">+ Quantum, CustoTrocaContexto</text>
<text text-anchor="start" x="500" y="-994.5" font-family="Helvetica,sans-Serif" font-size="10.00">+ TamanhoPagina, NumeroMolduras</text>
<text text-anchor="start" x="500" y="-983.5" font-family="Helvetica,sans-Serif" font-size="10.00">+ Substituicao, Semente ...</text>
</g>
<!-- Fabrica&#45;&gt;Config -->
<g id="edge32" class="edge">
<title>Fabrica&#45;&gt;Config</title>
<path fill="none" stroke="#4a6178" stroke-dasharray="5,2" d="M135.53,-666.52C160.69,-720.75 243.62,-883.52 365,-961.5 376.46,-968.86 389.07,-974.92 402.13,-979.89"/>
<polygon fill="#4a6178" stroke="#4a6178" points="411.72,-983.32 400.79,-984.19 407.01,-981.64 402.31,-979.95 402.31,-979.95 402.31,-979.95 407.01,-981.64 403.82,-975.71 411.72,-983.32 411.72,-983.32"/>
<text text-anchor="middle" x="309" y="-932.3" font-family="Helvetica,sans-Serif" font-size="9.00">usa</text>
</g>
<!-- Carga -->
<g id="node34" class="node">
<title>Carga</title>
<polygon fill="#f4f7fa" stroke="#4a6178" points="482.5,-540 482.5,-581 615.5,-581 615.5,-540 482.5,-540"/>
<text text-anchor="middle" x="505" y="-558" font-family="Helvetica,sans-Serif" font-size="10.00">Carga</text>
<polyline fill="none" stroke="#4a6178" points="527.5,-540 527.5,-581 "/>
<text text-anchor="start" x="535.5" y="-569" font-family="Helvetica,sans-Serif" font-size="10.00">+ Processos</text>
<text text-anchor="start" x="535.5" y="-558" font-family="Helvetica,sans-Serif" font-size="10.00">+ Dispositivos</text>
<text text-anchor="start" x="535.5" y="-547" font-family="Helvetica,sans-Serif" font-size="10.00">+ Semente?</text>
</g>
<!-- Fabrica&#45;&gt;Carga -->
<g id="edge31" class="edge">
<title>Fabrica&#45;&gt;Carga</title>
<path fill="none" stroke="#4a6178" stroke-dasharray="5,2" d="M207.93,-630.44C253.89,-620.24 312.62,-607.39 365,-596.5 400.19,-589.19 439.28,-581.45 472.26,-575.02"/>
<polygon fill="#4a6178" stroke="#4a6178" points="482.29,-573.08 473.33,-579.4 477.38,-574.03 472.47,-574.98 472.47,-574.98 472.47,-574.98 477.38,-574.03 471.61,-570.57 482.29,-573.08 482.29,-573.08"/>
<text text-anchor="middle" x="309" y="-615.3" font-family="Helvetica,sans-Serif" font-size="9.00">usa</text>
</g>
<!-- IEvento -->
<g id="node7" class="node">
<title>IEvento</title>
<polygon fill="#e6edf3" stroke="#4a6178" points="1251.5,-887 1251.5,-928 1485.5,-928 1485.5,-887 1251.5,-887"/>
<text text-anchor="start" x="1259.5" y="-910.5" font-family="Helvetica,sans-Serif" font-size="10.00">«interface»</text>
<text text-anchor="middle" x="1287.5" y="-899.5" font-family="Helvetica,sans-Serif" font-size="10.00">IEvento</text>
<polyline fill="none" stroke="#4a6178" points="1323.5,-887 1323.5,-928 "/>
<text text-anchor="start" x="1331.5" y="-916" font-family="Helvetica,sans-Serif" font-size="10.00">+ Tempo : long</text>
<text text-anchor="start" x="1331.5" y="-905" font-family="Helvetica,sans-Serif" font-size="10.00">+ Sequencia : long</text>
<text text-anchor="start" x="1331.5" y="-894" font-family="Helvetica,sans-Serif" font-size="10.00">+ Executar(NucleoSimulacao)</text>
</g>
<!-- Fila&#45;&gt;IEvento -->
<g id="edge25" class="edge">
<title>Fila&#45;&gt;IEvento</title>
<path fill="none" stroke="#4a6178" d="M1110.24,-732.68C1126.16,-738.11 1141.3,-745.78 1154,-756.5 1191.84,-788.44 1157.23,-827.32 1194,-860.5 1210.1,-875.03 1230.25,-885.13 1251.06,-892.15"/>
<polygon fill="none" stroke="#4a6178" points="1110,-732.6 1103.1,-734.68 1098.53,-729.1 1105.43,-727.03 1110,-732.6"/>
</g>
<!-- Fcfs -->
<g id="node9" class="node">
<title>Fcfs</title>
<polygon fill="#f4f7fa" stroke="#4a6178" points="501,-844.5 501,-880.5 597,-880.5 597,-844.5 501,-844.5"/>
<text text-anchor="middle" x="549" y="-860" font-family="Helvetica,sans-Serif" font-size="10.00">EscalonadorFcfs</text>
</g>
<!-- Fcfs&#45;&gt;IEsc -->
<g id="edge1" class="edge">
<title>Fcfs&#45;&gt;IEsc</title>
<path fill="none" stroke="#4a6178" stroke-dasharray="5,2" d="M597.16,-862.5C656.62,-862.5 761.38,-862.5 846.75,-862.5"/>
<polygon fill="none" stroke="#4a6178" points="846.79,-866 856.79,-862.5 846.79,-859 846.79,-866"/>
</g>
<!-- Rr -->
<g id="node10" class="node">
<title>Rr</title>
<polygon fill="#f4f7fa" stroke="#4a6178" points="482,-778.5 482,-814.5 616,-814.5 616,-778.5 482,-778.5"/>
<text text-anchor="middle" x="549" y="-794" font-family="Helvetica,sans-Serif" font-size="10.00">EscalonadorRoundRobin</text>
</g>
<!-- Rr&#45;&gt;IEsc -->
<g id="edge2" class="edge">
<title>Rr&#45;&gt;IEsc</title>
<path fill="none" stroke="#4a6178" stroke-dasharray="5,2" d="M616.23,-806.6C677.22,-815.89 769.61,-829.97 846.39,-841.68"/>
<polygon fill="none" stroke="#4a6178" points="846.23,-845.19 856.64,-843.24 847.28,-838.27 846.23,-845.19"/>
</g>
<!-- Prio -->
<g id="node11" class="node">
<title>Prio</title>
<polygon fill="#f4f7fa" stroke="#4a6178" points="486.5,-910.5 486.5,-946.5 611.5,-946.5 611.5,-910.5 486.5,-910.5"/>
<text text-anchor="middle" x="549" y="-926" font-family="Helvetica,sans-Serif" font-size="10.00">EscalonadorPrioridade</text>
</g>
<!-- Prio&#45;&gt;IEsc -->
<g id="edge3" class="edge">
<title>Prio&#45;&gt;IEsc</title>
<path fill="none" stroke="#4a6178" stroke-dasharray="5,2" d="M611.58,-919.11C672.59,-909.81 768.08,-895.26 846.96,-883.24"/>
<polygon fill="none" stroke="#4a6178" points="847.63,-886.67 856.98,-881.71 846.57,-879.75 847.63,-886.67"/>
</g>
<!-- ISub -->
<g id="node13" class="node">
<title>ISub</title>
<polygon fill="#e6edf3" stroke="#4a6178" points="1245,-409 1245,-450 1492,-450 1492,-409 1245,-409"/>
<text text-anchor="start" x="1253" y="-432.5" font-family="Helvetica,sans-Serif" font-size="10.00">«interface»</text>
<text text-anchor="middle" x="1303" y="-421.5" font-family="Helvetica,sans-Serif" font-size="10.00">IPoliticaSubstituicao</text>
<polyline fill="none" stroke="#4a6178" points="1361,-409 1361,-450 "/>
<text text-anchor="start" x="1369" y="-438" font-family="Helvetica,sans-Serif" font-size="10.00">+ AoCarregar(moldura)</text>
<text text-anchor="start" x="1369" y="-427" font-family="Helvetica,sans-Serif" font-size="10.00">+ AoAcessar(moldura)</text>
<text text-anchor="start" x="1369" y="-416" font-family="Helvetica,sans-Serif" font-size="10.00">+ EscolherVitima() : int</text>
</g>
<!-- GerMem&#45;&gt;ISub -->
<g id="edge26" class="edge">
<title>GerMem&#45;&gt;ISub</title>
<path fill="none" stroke="#4a6178" d="M1123.49,-389.95C1163.15,-396.38 1206.1,-403.34 1244.74,-409.6"/>
<polygon fill="none" stroke="#4a6178" points="1123.42,-389.94 1116.85,-392.92 1111.57,-388.02 1118.13,-385.03 1123.42,-389.94"/>
</g>
<!-- TabPag -->
<g id="node16" class="node">
<title>TabPag</title>
<polygon fill="#f4f7fa" stroke="#4a6178" points="1583,-390.5 1583,-426.5 1838,-426.5 1838,-390.5 1583,-390.5"/>
<text text-anchor="middle" x="1632.5" y="-406" font-family="Helvetica,sans-Serif" font-size="10.00">TabelaDePaginas</text>
<polyline fill="none" stroke="#4a6178" points="1682,-390.5 1682,-426.5 "/>
<text text-anchor="start" x="1690" y="-411.5" font-family="Helvetica,sans-Serif" font-size="10.00">+ Obter(pagina)</text>
<text text-anchor="start" x="1690" y="-400.5" font-family="Helvetica,sans-Serif" font-size="10.00">+ TemEntrada(pagina) : bool</text>
</g>
<!-- GerMem&#45;&gt;TabPag -->
<g id="edge34" class="edge">
<title>GerMem&#45;&gt;TabPag</title>
<path fill="none" stroke="#4a6178" stroke-dasharray="5,2" d="M1154.01,-368.94C1255.1,-370.75 1386.04,-374.74 1502,-383.5 1524.95,-385.23 1549.27,-387.64 1572.87,-390.29"/>
<polygon fill="#4a6178" stroke="#4a6178" points="1582.93,-391.43 1572.49,-394.77 1577.97,-390.87 1573,-390.3 1573,-390.3 1573,-390.3 1577.97,-390.87 1573.51,-385.83 1582.93,-391.43 1582.93,-391.43"/>
<text text-anchor="middle" x="1368.5" y="-386.3" font-family="Helvetica,sans-Serif" font-size="9.00">traduz</text>
</g>
<!-- Fifo -->
<g id="node14" class="node">
<title>Fifo</title>
<polygon fill="#f4f7fa" stroke="#4a6178" points="936.5,-418.5 936.5,-454.5 1031.5,-454.5 1031.5,-418.5 936.5,-418.5"/>
<text text-anchor="middle" x="984" y="-434" font-family="Helvetica,sans-Serif" font-size="10.00">SubstituicaoFifo</text>
</g>
<!-- Fifo&#45;&gt;ISub -->
<g id="edge4" class="edge">
<title>Fifo&#45;&gt;ISub</title>
<path fill="none" stroke="#4a6178" stroke-dasharray="5,2" d="M1031.52,-435.65C1081.71,-434.73 1163.93,-433.23 1234.47,-431.93"/>
<polygon fill="none" stroke="#4a6178" points="1234.86,-435.43 1244.79,-431.75 1234.73,-428.43 1234.86,-435.43"/>
</g>
<!-- Lru -->
<g id="node15" class="node">
<title>Lru</title>
<polygon fill="#f4f7fa" stroke="#4a6178" points="938,-484.5 938,-520.5 1030,-520.5 1030,-484.5 938,-484.5"/>
<text text-anchor="middle" x="984" y="-500" font-family="Helvetica,sans-Serif" font-size="10.00">SubstituicaoLru</text>
</g>
<!-- Lru&#45;&gt;ISub -->
<g id="edge5" class="edge">
<title>Lru&#45;&gt;ISub</title>
<path fill="none" stroke="#4a6178" stroke-dasharray="5,2" d="M1030,-493.91C1083.68,-483.67 1175.47,-466.15 1249.79,-451.96"/>
<polygon fill="none" stroke="#4a6178" points="1250.53,-455.39 1259.69,-450.08 1249.21,-448.51 1250.53,-455.39"/>
</g>
<!-- IDisco -->
<g id="node18" class="node">
<title>IDisco</title>
<polygon fill="#e6edf3" stroke="#4a6178" points="1235,-165.5 1235,-201.5 1502,-201.5 1502,-165.5 1235,-165.5"/>
<text text-anchor="start" x="1243" y="-186.5" font-family="Helvetica,sans-Serif" font-size="10.00">«interface»</text>
<text text-anchor="middle" x="1288" y="-175.5" font-family="Helvetica,sans-Serif" font-size="10.00">IEscalonadorDisco</text>
<polyline fill="none" stroke="#4a6178" points="1341,-165.5 1341,-201.5 "/>
<text text-anchor="start" x="1349" y="-186.5" font-family="Helvetica,sans-Serif" font-size="10.00">+ Selecionar(pendentes, pos)</text>
<text text-anchor="start" x="1349" y="-175.5" font-family="Helvetica,sans-Serif" font-size="10.00"> : RequisicaoES</text>
</g>
<!-- Disp&#45;&gt;IDisco -->
<g id="edge27" class="edge">
<title>Disp&#45;&gt;IDisco</title>
<path fill="none" stroke="#4a6178" d="M1108.36,-261.51C1123.76,-257.62 1139.27,-253.56 1154,-249.5 1208.23,-234.55 1269.52,-215.37 1312.48,-201.53"/>
<polygon fill="none" stroke="#4a6178" points="1108.25,-261.54 1103.41,-266.88 1096.61,-264.46 1101.46,-259.12 1108.25,-261.54"/>
</g>
<!-- DFcfs -->
<g id="node19" class="node">
<title>DFcfs</title>
<polygon fill="#f4f7fa" stroke="#4a6178" points="952,-198.5 952,-234.5 1016,-234.5 1016,-198.5 952,-198.5"/>
<text text-anchor="middle" x="984" y="-214" font-family="Helvetica,sans-Serif" font-size="10.00">DiscoFcfs</text>
</g>
<!-- DFcfs&#45;&gt;IDisco -->
<g id="edge6" class="edge">
<title>DFcfs&#45;&gt;IDisco</title>
<path fill="none" stroke="#4a6178" stroke-dasharray="5,2" d="M1016.3,-213.8C1061.64,-209.89 1148.47,-202.4 1224.45,-195.84"/>
<polygon fill="none" stroke="#4a6178" points="1224.95,-199.31 1234.61,-194.96 1224.35,-192.34 1224.95,-199.31"/>
</g>
<!-- DSstf -->
<g id="node20" class="node">
<title>DSstf</title>
<polygon fill="#f4f7fa" stroke="#4a6178" points="953,-132.5 953,-168.5 1015,-168.5 1015,-132.5 953,-132.5"/>
<text text-anchor="middle" x="984" y="-148" font-family="Helvetica,sans-Serif" font-size="10.00">DiscoSstf</text>
</g>
<!-- DSstf&#45;&gt;IDisco -->
<g id="edge7" class="edge">
<title>DSstf&#45;&gt;IDisco</title>
<path fill="none" stroke="#4a6178" stroke-dasharray="5,2" d="M1015.01,-153.09C1060.02,-156.97 1147.9,-164.55 1224.65,-171.18"/>
<polygon fill="none" stroke="#4a6178" points="1224.65,-174.69 1234.91,-172.06 1225.25,-167.71 1224.65,-174.69"/>
</g>
<!-- DScan -->
<g id="node21" class="node">
<title>DScan</title>
<polygon fill="#f4f7fa" stroke="#4a6178" points="950.5,-66.5 950.5,-102.5 1017.5,-102.5 1017.5,-66.5 950.5,-66.5"/>
<text text-anchor="middle" x="984" y="-82" font-family="Helvetica,sans-Serif" font-size="10.00">DiscoScan</text>
</g>
<!-- DScan&#45;&gt;IDisco -->
<g id="edge8" class="edge">
<title>DScan&#45;&gt;IDisco</title>
<path fill="none" stroke="#4a6178" stroke-dasharray="5,2" d="M1017.63,-89.8C1051.83,-95.61 1107.03,-105.69 1154,-117.5 1205.31,-130.4 1262.54,-148.29 1304.83,-162.19"/>
<polygon fill="none" stroke="#4a6178" points="1303.83,-165.54 1314.43,-165.36 1306.03,-158.9 1303.83,-165.54"/>
</g>
<!-- No -->
<g id="node23" class="node">
<title>No</title>
<polygon fill="#f4f7fa" stroke="#4a6178" points="1278,-622.5 1278,-658.5 1459,-658.5 1459,-622.5 1278,-622.5"/>
<text text-anchor="middle" x="1293" y="-638" font-family="Helvetica,sans-Serif" font-size="10.00">No</text>
<polyline fill="none" stroke="#4a6178" points="1308,-622.5 1308,-658.5 "/>
<text text-anchor="start" x="1316" y="-643.5" font-family="Helvetica,sans-Serif" font-size="10.00">+ Nome, Tipo, Tamanho</text>
<text text-anchor="start" x="1316" y="-632.5" font-family="Helvetica,sans-Serif" font-size="10.00">+ Permissoes, Timestamps</text>
</g>
<!-- SisArq&#45;&gt;No -->
<g id="edge16" class="edge">
<title>SisArq&#45;&gt;No</title>
<path fill="none" stroke="#4a6178" d="M1142.16,-645.21C1188.41,-644.25 1237.41,-643.22 1277.87,-642.37"/>
<polygon fill="#4a6178" stroke="#4a6178" points="1142.15,-645.21 1136.23,-649.34 1130.15,-645.46 1136.07,-641.34 1142.15,-645.21"/>
</g>
<!-- Descr -->
<g id="node24" class="node">
<title>Descr</title>
<polygon fill="#f4f7fa" stroke="#4a6178" points="1263,-820.5 1263,-856.5 1474,-856.5 1474,-820.5 1263,-820.5"/>
<text text-anchor="middle" x="1309.5" y="-836" font-family="Helvetica,sans-Serif" font-size="10.00">DescritorAberto</text>
<polyline fill="none" stroke="#4a6178" points="1356,-820.5 1356,-856.5 "/>
<text text-anchor="start" x="1364" y="-841.5" font-family="Helvetica,sans-Serif" font-size="10.00">+ ModoEscrita : bool</text>
<text text-anchor="start" x="1364" y="-830.5" font-family="Helvetica,sans-Serif" font-size="10.00">+ Posicao : long</text>
</g>
<!-- SisArq&#45;&gt;Descr -->
<g id="edge29" class="edge">
<title>SisArq&#45;&gt;Descr</title>
<path fill="none" stroke="#4a6178" d="M1138.02,-679.92C1143.56,-682.84 1148.91,-686.02 1154,-689.5 1205.91,-724.99 1183.2,-769.86 1235,-805.5 1243.69,-811.48 1253.36,-816.38 1263.42,-820.39"/>
<polygon fill="none" stroke="#4a6178" points="1137.95,-679.89 1130.8,-680.86 1127.15,-674.64 1134.3,-673.67 1137.95,-679.89"/>
</g>
<!-- Thread -->
<g id="node26" class="node">
<title>Thread</title>
<polygon fill="#f4f7fa" stroke="#4a6178" points="1241.5,-551 1241.5,-592 1495.5,-592 1495.5,-551 1241.5,-551"/>
<text text-anchor="middle" x="1289.5" y="-569" font-family="Helvetica,sans-Serif" font-size="10.00">ThreadSimulada</text>
<polyline fill="none" stroke="#4a6178" points="1337.5,-551 1337.5,-592 "/>
<text text-anchor="start" x="1345.5" y="-580" font-family="Helvetica,sans-Serif" font-size="10.00">+ Estado : EstadoThread</text>
<text text-anchor="start" x="1345.5" y="-569" font-family="Helvetica,sans-Serif" font-size="10.00">+ OperacaoAtual : IOperacao</text>
<text text-anchor="start" x="1345.5" y="-558" font-family="Helvetica,sans-Serif" font-size="10.00">+ Identificacao : string</text>
</g>
<!-- Processo&#45;&gt;Thread -->
<g id="edge14" class="edge">
<title>Processo&#45;&gt;Thread</title>
<path fill="none" stroke="#4a6178" d="M1119.75,-571.5C1159.28,-571.5 1202.34,-571.5 1241.32,-571.5"/>
<polygon fill="#4a6178" stroke="#4a6178" points="1119.6,-571.5 1113.6,-575.5 1107.6,-571.5 1113.6,-567.5 1119.6,-571.5"/>
</g>
<!-- Pcb -->
<g id="node27" class="node">
<title>Pcb</title>
<polygon fill="#f4f7fa" stroke="#4a6178" points="1236.5,-480 1236.5,-521 1500.5,-521 1500.5,-480 1236.5,-480"/>
<text text-anchor="middle" x="1253.5" y="-498" font-family="Helvetica,sans-Serif" font-size="10.00">Pcb</text>
<polyline fill="none" stroke="#4a6178" points="1270.5,-480 1270.5,-521 "/>
<text text-anchor="start" x="1278.5" y="-509" font-family="Helvetica,sans-Serif" font-size="10.00">+ Prioridade</text>
<text text-anchor="start" x="1278.5" y="-498" font-family="Helvetica,sans-Serif" font-size="10.00">+ EspacoEnderecamento : TabelaDePaginas</text>
<text text-anchor="start" x="1278.5" y="-487" font-family="Helvetica,sans-Serif" font-size="10.00">+ ArquivosAbertos</text>
</g>
<!-- Processo&#45;&gt;Pcb -->
<g id="edge13" class="edge">
<title>Processo&#45;&gt;Pcb</title>
<path fill="none" stroke="#4a6178" d="M1107.66,-548.73C1155.57,-539.84 1210.09,-529.72 1256.78,-521.05"/>
<polygon fill="#4a6178" stroke="#4a6178" points="1107.43,-548.77 1102.26,-553.8 1095.63,-550.96 1100.8,-545.94 1107.43,-548.77"/>
</g>
<!-- Tcb -->
<g id="node28" class="node">
<title>Tcb</title>
<polygon fill="#f4f7fa" stroke="#4a6178" points="1619,-551 1619,-592 1802,-592 1802,-551 1619,-551"/>
<text text-anchor="middle" x="1635" y="-569" font-family="Helvetica,sans-Serif" font-size="10.00">Tcb</text>
<polyline fill="none" stroke="#4a6178" points="1651,-551 1651,-592 "/>
<text text-anchor="start" x="1659" y="-580" font-family="Helvetica,sans-Serif" font-size="10.00">+ ContadorProgramaLogico</text>
<text text-anchor="start" x="1659" y="-569" font-family="Helvetica,sans-Serif" font-size="10.00">+ Registradores[]</text>
<text text-anchor="start" x="1659" y="-558" font-family="Helvetica,sans-Serif" font-size="10.00">+ PilhaLogica</text>
</g>
<!-- Thread&#45;&gt;Tcb -->
<g id="edge15" class="edge">
<title>Thread&#45;&gt;Tcb</title>
<path fill="none" stroke="#4a6178" d="M1507.7,-571.5C1545.17,-571.5 1584.78,-571.5 1618.89,-571.5"/>
<polygon fill="#4a6178" stroke="#4a6178" points="1507.62,-571.5 1501.62,-575.5 1495.62,-571.5 1501.62,-567.5 1507.62,-571.5"/>
</g>
<!-- IOper -->
<g id="node29" class="node">
<title>IOper</title>
<polygon fill="#e6edf3" stroke="#4a6178" points="1618.5,-721.5 1618.5,-757.5 1802.5,-757.5 1802.5,-721.5 1618.5,-721.5"/>
<text text-anchor="start" x="1626.5" y="-742.5" font-family="Helvetica,sans-Serif" font-size="10.00">«interface»</text>
<text text-anchor="middle" x="1654.5" y="-731.5" font-family="Helvetica,sans-Serif" font-size="10.00">IOperacao</text>
<polyline fill="none" stroke="#4a6178" points="1690.5,-721.5 1690.5,-757.5 "/>
<text text-anchor="start" x="1698.5" y="-737" font-family="Helvetica,sans-Serif" font-size="10.00">+ Resumo() : string</text>
</g>
<!-- Thread&#45;&gt;IOper -->
<g id="edge28" class="edge">
<title>Thread&#45;&gt;IOper</title>
<path fill="none" stroke="#4a6178" d="M1471.04,-595.68C1481.65,-599.21 1492.15,-603.15 1502,-607.5 1573.67,-639.16 1649.21,-693.25 1686.24,-721.35"/>
<polygon fill="none" stroke="#4a6178" points="1470.94,-595.65 1464.01,-597.64 1459.51,-592.01 1466.44,-590.02 1470.94,-595.65"/>
</g>
<!-- Pcb&#45;&gt;TabPag -->
<g id="edge17" class="edge">
<title>Pcb&#45;&gt;TabPag</title>
<path fill="none" stroke="#4a6178" d="M1457.09,-476.8C1514.98,-461.14 1589.68,-440.92 1642.76,-426.56"/>
<polygon fill="#4a6178" stroke="#4a6178" points="1456.96,-476.83 1452.22,-482.26 1445.38,-479.97 1450.13,-474.54 1456.96,-476.83"/>
</g>
<!-- Surto -->
<g id="node30" class="node">
<title>Surto</title>
<polygon fill="#f4f7fa" stroke="#4a6178" points="1338,-754.5 1338,-790.5 1399,-790.5 1399,-754.5 1338,-754.5"/>
<text text-anchor="middle" x="1368.5" y="-770" font-family="Helvetica,sans-Serif" font-size="10.00">SurtoCpu</text>
</g>
<!-- Surto&#45;&gt;IOper -->
<g id="edge9" class="edge">
<title>Surto&#45;&gt;IOper</title>
<path fill="none" stroke="#4a6178" stroke-dasharray="5,2" d="M1399.08,-769.63C1445.29,-765.14 1536.76,-756.27 1608.49,-749.3"/>
<polygon fill="none" stroke="#4a6178" points="1608.86,-752.78 1618.47,-748.33 1608.18,-745.82 1608.86,-752.78"/>
</g>
<!-- OpES -->
<g id="node31" class="node">
<title>OpES</title>
<polygon fill="#f4f7fa" stroke="#4a6178" points="1331,-688.5 1331,-724.5 1406,-724.5 1406,-688.5 1331,-688.5"/>
<text text-anchor="middle" x="1368.5" y="-704" font-family="Helvetica,sans-Serif" font-size="10.00">OperacaoES</text>
</g>
<!-- OpES&#45;&gt;IOper -->
<g id="edge10" class="edge">
<title>OpES&#45;&gt;IOper</title>
<path fill="none" stroke="#4a6178" stroke-dasharray="5,2" d="M1406.21,-710.06C1454.15,-714.72 1539.98,-723.05 1608.12,-729.66"/>
<polygon fill="none" stroke="#4a6178" points="1608.18,-733.18 1618.47,-730.66 1608.86,-726.22 1608.18,-733.18"/>
</g>
<!-- OpArq -->
<g id="node32" class="node">
<title>OpArq</title>
<polygon fill="#f4f7fa" stroke="#4a6178" points="1318,-958.5 1318,-994.5 1419,-994.5 1419,-958.5 1318,-958.5"/>
<text text-anchor="middle" x="1368.5" y="-974" font-family="Helvetica,sans-Serif" font-size="10.00">OperacaoArquivo</text>
</g>
<!-- OpArq&#45;&gt;IOper -->
<g id="edge11" class="edge">
<title>OpArq&#45;&gt;IOper</title>
<path fill="none" stroke="#4a6178" stroke-dasharray="5,2" d="M1419.03,-970.57C1444.98,-965.92 1476.56,-957.75 1502,-943.5 1584.44,-897.33 1657.18,-809.74 1690.38,-765.89"/>
<polygon fill="none" stroke="#4a6178" points="1693.3,-767.83 1696.49,-757.73 1687.7,-763.64 1693.3,-767.83"/>
</g>
<!-- Leitor -->
<g id="node33" class="node">
<title>Leitor</title>
<polygon fill="#f4f7fa" stroke="#4a6178" points="0,-542.5 0,-578.5 253,-578.5 253,-542.5 0,-542.5"/>
<text text-anchor="middle" x="43" y="-558" font-family="Helvetica,sans-Serif" font-size="10.00">LeitorDeCarga</text>
<polyline fill="none" stroke="#4a6178" points="86,-542.5 86,-578.5 "/>
<text text-anchor="start" x="94" y="-563.5" font-family="Helvetica,sans-Serif" font-size="10.00">+ LerArquivo(caminho) : Carga</text>
<text text-anchor="start" x="94" y="-552.5" font-family="Helvetica,sans-Serif" font-size="10.00">+ LerTexto(texto) : Carga</text>
</g>
<!-- Leitor&#45;&gt;Carga -->
<g id="edge33" class="edge">
<title>Leitor&#45;&gt;Carga</title>
<path fill="none" stroke="#4a6178" stroke-dasharray="5,2" d="M253.09,-560.5C324.36,-560.5 411.2,-560.5 472.12,-560.5"/>
<polygon fill="#4a6178" stroke="#4a6178" points="482.43,-560.5 472.43,-565 477.43,-560.5 472.43,-560.5 472.43,-560.5 472.43,-560.5 477.43,-560.5 472.43,-556 482.43,-560.5 482.43,-560.5"/>
<text text-anchor="middle" x="309" y="-563.3" font-family="Helvetica,sans-Serif" font-size="9.00">produz</text>
</g>
</g>
</svg>
